<svg width="185" height="55" viewBox="0 0 185 55" fill="none" xmlns="http://www.w3.org/2000/svg">
<path d="M34 30.9999L42 30.6999L34 19.3999V30.9999Z" fill="#0D79BE"/>
<path d="M34 30.9999L26 30.6999L34 19.3999V30.9999Z" fill="#3790BB"/>
<path d="M51 40L57.3 19L34 31L51 40Z" fill="#D06A29"/>
<path d="M34 31L10.7 19L17 40L34 31Z" fill="#F69226"/>
<path d="M34 31L51 40H17L34 31Z" fill="#ED7723"/>
<path d="M86.9 40L93.7 17H88L84 32.7L79.4 17H75.4L70.8 32.7L66.7 17H61L67.8 40H73.2L77.2 24.2L81.5 40H86.9Z" fill="#242121"/>
<path d="M108.2 22.2002V39.5002H103.7V37.3002C102.5 38.6002 100.4 39.9002 97.6 39.9002C93.8 39.9002 92 37.8002 92 34.5002V30.8002L94.5 22.2002H96.6V32.7002C96.6 35.1002 97.9 35.9002 99.8 35.9002C101.6 35.9002 103 34.9002 103.7 33.9002V22.2002H108.2Z" fill="#242121"/>
<path d="M92.1 22.2002H92V22.7002L92.1 22.2002Z" fill="#242121"/>
<path d="M127.2 27.2002V39.4002H122.6V29.0002C122.6 26.6002 121.3 25.8002 119.4 25.8002C117.6 25.8002 116.2 26.8002 115.5 27.8002V39.5002H111V22.2002H115.5V24.4002C116.6 23.1002 118.8 21.7002 121.6 21.7002C125.3 21.7002 127.2 23.9002 127.2 27.2002Z" fill="#242121"/>
<path d="M146.1 27.2002V39.4002H141.5V29.0002C141.5 26.6002 140.2 25.8002 138.3 25.8002C136.5 25.8002 135.1 26.8002 134.4 27.8002V39.5002H129.8V22.2002H134.4V24.4002C135.5 23.1002 137.7 21.7002 140.5 21.7002C144.3 21.7002 146.1 23.9002 146.1 27.2002Z" fill="#242121"/>
<path d="M153.4 15.6001V39.5001H148.9V15.6001H153.4Z" fill="#242121"/>
<path d="M167.3 39.2002C169.9 38.5002 172.3 37.0002 173.6 35.0002L170.8 32.6002C170 33.9002 168.2 35.0002 166.8 35.4002C164 36.2002 161.8 34.9002 161 33.0002L173.4 29.7002L173.1 28.7002C171.6 23.3002 167.3 20.4002 162.3 21.8002C157.2 23.2002 154.7 28.0002 156 32.9002C157.4 38.2002 162.2 40.6002 167.3 39.2002ZM168.3 27.8002L160.1 30.0002C159.8 28.3002 160.5 26.1002 163.2 25.3002C166.1 24.5002 167.8 26.2002 168.3 27.8002Z" fill="#242121"/>
</svg>
