<svg width="189" height="46" viewBox="0 0 189 46" fill="none" xmlns="http://www.w3.org/2000/svg">
<path d="M88.4276 35.6067L96.0069 9.9502H89.6642L85.1711 27.5245L79.9707 9.9502H75.5428L70.433 27.5245L65.8093 9.9502H59.4666L67.0858 35.6067H73.1094L77.5644 18.0161L82.404 35.6067H88.4276Z" fill="#242121"/>
<path fill-rule="evenodd" clip-rule="evenodd" d="M112.14 15.6798V34.9998H107.06V32.5598C105.74 33.9998 103.42 35.4798 100.26 35.4798C96.02 35.4798 94.02 33.1598 94.02 29.3998V25.2871L96.7649 15.6798H99.1V27.3998C99.1 30.0798 100.5 30.9598 102.66 30.9598C104.62 30.9598 106.18 29.8798 107.06 28.7598V15.6798H112.14ZM94.1649 15.6798H94.02V16.187L94.1649 15.6798ZM133.344 21.3598V34.9998H128.224V23.3198C128.224 20.6398 126.824 19.7198 124.664 19.7198C122.664 19.7198 121.144 20.8398 120.264 21.9598V34.9998H115.184V15.6798H120.264V18.1598C121.504 16.7198 123.904 15.1998 127.024 15.1998C131.304 15.1998 133.344 17.5998 133.344 21.3598ZM154.508 21.3598V34.9998H149.388V23.3198C149.388 20.6398 147.988 19.7198 145.828 19.7198C143.828 19.7198 142.308 20.8398 141.428 21.9598V34.9998H136.348V15.6798H141.428V18.1598C142.668 16.7198 145.068 15.1998 148.188 15.1998C152.468 15.1998 154.508 17.5998 154.508 21.3598ZM162.592 8.31982V34.9998H157.512V8.31982H162.592Z" fill="#242121"/>
<path d="M25.5094 25.2765L35.3208 24.8581L25.5094 11.0503V25.2765Z" fill="#0D79BE"/>
<path d="M25.5094 25.2765L15.6981 24.8581L25.5094 11.0503V25.2765Z" fill="#3790BB"/>
<path d="M6.86792 35.5784L0 12.0312L26 25.2765L6.86792 35.5784Z" fill="#F69226"/>
<path d="M45.1321 35.5784L52 12.0312L26 25.2765L45.1321 35.5784Z" fill="#D06A29"/>
<path d="M45.1321 35.5787H6.86792L26 25.2769L45.1321 35.5787Z" fill="#ED7723"/>
<path d="M177.111 34.7699C180.009 33.9934 182.707 32.318 184.106 30.121L181.034 27.4656C180.147 28.9457 178.16 30.1822 176.575 30.6067C173.407 31.4556 171.045 30.0593 170.087 27.8729L183.957 24.1563L183.647 22.9972C182.021 16.9312 177.156 13.7626 171.553 15.2637C165.912 16.7752 163.064 22.2179 164.513 27.6271C166.118 33.6158 171.432 36.2918 177.111 34.7699ZM178.333 22.0193L169.137 24.4832C168.833 22.5769 169.578 20.0999 172.63 19.282C175.875 18.4124 177.702 20.2834 178.333 22.0193Z" fill="#242121"/>
</svg>
