<?xml version="1.0" encoding="utf-8"?>
<!-- Generator: Adobe Illustrator 22.1.0, SVG Export Plug-In . SVG Version: 6.00 Build 0)  -->
<svg version="1.1" id="Layer_1" xmlns="http://www.w3.org/2000/svg" xmlns:xlink="http://www.w3.org/1999/xlink" x="0px" y="0px"
	 viewBox="0 0 136 40" style="enable-background:new 0 0 136 40;" xml:space="preserve">
<style type="text/css">
	.st0{fill:#0D79BE;}
	.st1{fill:#3790BB;}
	.st2{fill:#D06A29;}
	.st3{fill:#F69226;}
	.st4{fill:#ED7723;}
	.st5{fill:#242121;}
</style>
<g>
	<g>
		<path class="st0" d="M23.2,21.7l6.1-0.3l-6.1-8.6V21.7z"/>
		<path class="st1" d="M23.2,21.7l-6.1-0.3l6.1-8.6V21.7z"/>
		<path class="st2" d="M36.1,28.5l4.8-16l-17.7,9.1L36.1,28.5z"/>
		<path class="st3" d="M23.2,21.7L5.5,12.5l4.8,16L23.2,21.7z"/>
		<polygon class="st4" points="23.2,21.7 36.1,28.5 10.3,28.5 		"/>
	</g>
	<g>
		<path class="st5" d="M63.5,28.5L68.6,11h-4.3l-3.1,12l-3.5-12h-3l-3.5,12l-3.1-12h-4.3l5.2,17.5H53l3-12l3.3,12H63.5z"/>
		<path class="st5" d="M79.6,14.9v13.2h-3.5v-1.7c-0.9,1-2.5,2-4.6,2c-2.9,0-4.2-1.6-4.2-4.1v-2.8l1.9-6.5h1.6v8
			c0,1.8,1,2.4,2.4,2.4c1.3,0,2.4-0.7,3-1.5v-8.9H79.6z"/>
		<path class="st5" d="M67.4,14.9L67.4,14.9l-0.1,0.3L67.4,14.9z"/>
		<path class="st5" d="M94,18.8v9.3h-3.5v-8c0-1.8-1-2.5-2.4-2.5c-1.4,0-2.4,0.8-3,1.5v8.9h-3.5V14.9h3.5v1.7c0.8-1,2.5-2,4.6-2
			C92.7,14.6,94,16.2,94,18.8z"/>
		<path class="st5" d="M108.5,18.8v9.3H105v-8c0-1.8-1-2.5-2.4-2.5c-1.4,0-2.4,0.8-3,1.5v8.9h-3.5V14.9h3.5v1.7c0.8-1,2.5-2,4.6-2
			C107.1,14.6,108.5,16.2,108.5,18.8z"/>
		<path class="st5" d="M114,9.9v18.2h-3.5V9.9H114z"/>
		<path class="st5" d="M124.5,27.9c2-0.5,3.8-1.7,4.8-3.2l-2.1-1.8c-0.6,1-2,1.8-3,2.1c-2.2,0.6-3.8-0.4-4.4-1.9l9.4-2.5l-0.2-0.8
			c-1.1-4.1-4.4-6.3-8.2-5.3c-3.8,1-5.8,4.7-4.8,8.4C117,27.1,120.7,28.9,124.5,27.9z M125.4,19.2l-6.3,1.7c-0.2-1.3,0.3-3,2.4-3.5
			C123.7,16.7,124.9,18,125.4,19.2z"/>
	</g>
</g>
</svg>
