<svg id="Layer_1" data-name="Layer 1" xmlns="http://www.w3.org/2000/svg" viewBox="0 0 167.52 74.49"><defs><style>.cls-1{fill:#3790bb;}.cls-2{fill:#0d79be;}.cls-3{fill:#ed7723;}.cls-4{fill:#d06a29;}.cls-5{fill:#f69226;}</style></defs><title>Artboard 1</title><polygon class="cls-1" points="166.76 20.41 105.28 33.15 95.66 37.66 166.76 20.41"/><polygon class="cls-1" points="164.03 20.29 106.15 33.03 96.13 41.04 164.03 20.29"/><path class="cls-2" d="M83.13.47V44.88l29-2.91L84.14.24C83.86-.18,83.13,0,83.13.47Z"/><path class="cls-1" d="M83.9.48v44.4L54.9,42,82.89.24A.56.56,0,0,1,83.9.48Z"/><path class="cls-3" d="M134,74.47c-10.46-6.28-38-30.16-50.19-30.15S44.16,68.2,33.72,74.49"/><path class="cls-4" d="M83.83,44.29s46.55,30.13,48.28,29.85a2.26,2.26,0,0,0,2.87-.32S151.4,53,167.49,19.27c.19-.87-.73-.64-.73-.64"/><polygon class="cls-1" points="2.58 20 61.28 32.83 71.45 40.86 2.58 20"/><path class="cls-5" d="M83.69,44.29S37.14,74.42,35.41,74.14a2.26,2.26,0,0,1-2.87-.32S16.12,53,0,19.27c-.18-.87.74-.64.74-.64"/></svg>